HIERARCHY
ROOT Hips
{
  OFFSET 5.80788e-005 67.184 3.4734
  CHANNELS 6 Xposition Yposition Zposition Zrotation Xrotation Yrotation
  JOINT Chest
  {
    OFFSET 0 8.7983 -4.7612
    CHANNELS 6 Xposition Yposition Zposition Zrotation Xrotation Yrotation
    JOINT Chest2
    {
      OFFSET 0 8.0291 0.4195
      CHANNELS 6 Xposition Yposition Zposition Zrotation Xrotation Yrotation
      JOINT Chest3
      {
        OFFSET 0 9.9351 -2.2114
        CHANNELS 6 Xposition Yposition Zposition Zrotation Xrotation Yrotation
        JOINT Neck
        {
          OFFSET 0 22.3885 -0.4656
          CHANNELS 6 Xposition Yposition Zposition Zrotation Xrotation Yrotation
          JOINT Head
          {
            OFFSET -0.0001 12.643 3.4389
            CHANNELS 6 Xposition Yposition Zposition Zrotation Xrotation Yrotation
            End Site
            {
              OFFSET 0.0001 17.6655 0.5274
            }
          }
        }
        JOINT LeftCollar
        {
          OFFSET 2.2603 21.606 7.4023
          CHANNELS 6 Xposition Yposition Zposition Zrotation Xrotation Yrotation
          JOINT LeftShoulder
          {
            OFFSET 13.5163 -1.1332 -5.0146
            CHANNELS 6 Xposition Yposition Zposition Zrotation Xrotation Yrotation
            JOINT LeftElbow
            {
              OFFSET -0.0995 -28.05 -0.2431
              CHANNELS 6 Xposition Yposition Zposition Zrotation Xrotation Yrotation
              JOINT LeftWrist
              {
                OFFSET 0.0679 -23.3996 -0.1402
                CHANNELS 6 Xposition Yposition Zposition Zrotation Xrotation Yrotation
                JOINT LeftFinger1
                {
                  OFFSET 0.7932 -9.069 2.5189
                  CHANNELS 6 Xposition Yposition Zposition Zrotation Xrotation Yrotation
                  JOINT LeftFinger11
                  {
                    OFFSET -0.8272 -3.3923 0.5977
                    CHANNELS 6 Xposition Yposition Zposition Zrotation Xrotation Yrotation
                    JOINT LeftFinger12
                    {
                      OFFSET -0.5649 -2.3158 0.4082
                      CHANNELS 6 Xposition Yposition Zposition Zrotation Xrotation Yrotation
                      End Site
                      {
                        OFFSET -0.4919 -1.6479 0.2673
                      }
                    }
                  }
                }
                JOINT LeftFinger2
                {
                  OFFSET 0.9159 -9.2044 0.2193
                  CHANNELS 6 Xposition Yposition Zposition Zrotation Xrotation Yrotation
                  JOINT LeftFinger21
                  {
                    OFFSET 0.0117 -4.1944 -0.0248
                    CHANNELS 6 Xposition Yposition Zposition Zrotation Xrotation Yrotation
                    JOINT LeftFinger22
                    {
                      OFFSET 0.0071 -2.3249 -0.0142
                      CHANNELS 6 Xposition Yposition Zposition Zrotation Xrotation Yrotation
                      End Site
                      {
                        OFFSET -0.1475 -2.0882 0.0028
                      }
                    }
                  }
                }
                JOINT LeftFinger3
                {
                  OFFSET 0.6113 -8.7231 -2.0637
                  CHANNELS 6 Xposition Yposition Zposition Zrotation Xrotation Yrotation
                  JOINT LeftFinger31
                  {
                    OFFSET -0.1927 -3.8059 -0.2383
                    CHANNELS 6 Xposition Yposition Zposition Zrotation Xrotation Yrotation
                    JOINT LeftFinger32
                    {
                      OFFSET -0.1091 -2.1688 -0.1362
                      CHANNELS 6 Xposition Yposition Zposition Zrotation Xrotation Yrotation
                      End Site
                      {
                        OFFSET -0.2358 -1.9176 -0.0906
                      }
                    }
                  }
                }
                JOINT LeftFinger4
                {
                  OFFSET -0.6151 -8.0947 -3.5641
                  CHANNELS 6 Xposition Yposition Zposition Zrotation Xrotation Yrotation
                  JOINT LeftFinger41
                  {
                    OFFSET -0.4882 -2.341 -0.6462
                    CHANNELS 6 Xposition Yposition Zposition Zrotation Xrotation Yrotation
                    JOINT LeftFinger42
                    {
                      OFFSET -0.3575 -1.7167 -0.4742
                      CHANNELS 6 Xposition Yposition Zposition Zrotation Xrotation Yrotation
                      End Site
                      {
                        OFFSET -0.4187 -1.5237 -0.3496
                      }
                    }
                  }
                }
                JOINT LeftFinger0
                {
                  OFFSET -1.42 -1.8761 1.4223
                  CHANNELS 6 Xposition Yposition Zposition Zrotation Xrotation Yrotation
                  JOINT LeftFinger01
                  {
                    OFFSET -1.1471 -3.4929 2.6334
                    CHANNELS 6 Xposition Yposition Zposition Zrotation Xrotation Yrotation
                    JOINT LeftFinger02
                    {
                      OFFSET -0.823 -2.3 1.6571
                      CHANNELS 6 Xposition Yposition Zposition Zrotation Xrotation Yrotation
                      End Site
                      {
                        OFFSET -0.5822 -1.6914 1.1582
                      }
                    }
                  }
                }
              }
            }
          }
        }
        JOINT RightCollar
        {
          OFFSET -2.2603 21.606 7.4023
          CHANNELS 6 Xposition Yposition Zposition Zrotation Xrotation Yrotation
          JOINT RightShoulder
          {
            OFFSET -13.5187 -1.1334 -5.0155
            CHANNELS 6 Xposition Yposition Zposition Zrotation Xrotation Yrotation
            JOINT RightElbow
            {
              OFFSET 0.0994 -28.0499 -0.2431
              CHANNELS 6 Xposition Yposition Zposition Zrotation Xrotation Yrotation
              JOINT RightWrist
              {
                OFFSET -0.0679 -23.3996 -0.1402
                CHANNELS 6 Xposition Yposition Zposition Zrotation Xrotation Yrotation
                JOINT RightFinger1
                {
                  OFFSET -0.7932 -9.0691 2.5189
                  CHANNELS 6 Xposition Yposition Zposition Zrotation Xrotation Yrotation
                  JOINT RightFinger11
                  {
                    OFFSET 0.8272 -3.3923 0.5977
                    CHANNELS 6 Xposition Yposition Zposition Zrotation Xrotation Yrotation
                    JOINT RightFinger12
                    {
                      OFFSET 0.565 -2.3158 0.4082
                      CHANNELS 6 Xposition Yposition Zposition Zrotation Xrotation Yrotation
                      End Site
                      {
                        OFFSET 0.4919 -1.6479 0.2673
                      }
                    }
                  }
                }
                JOINT RightFinger2
                {
                  OFFSET -0.916 -9.2044 0.2193
                  CHANNELS 6 Xposition Yposition Zposition Zrotation Xrotation Yrotation
                  JOINT RightFinger21
                  {
                    OFFSET -0.0117 -4.1944 -0.0248
                    CHANNELS 6 Xposition Yposition Zposition Zrotation Xrotation Yrotation
                    JOINT RightFinger22
                    {
                      OFFSET -0.0071 -2.3249 -0.0142
                      CHANNELS 6 Xposition Yposition Zposition Zrotation Xrotation Yrotation
                      End Site
                      {
                        OFFSET 0.1475 -2.0882 0.0028
                      }
                    }
                  }
                }
                JOINT RightFinger3
                {
                  OFFSET -0.6113 -8.7231 -2.0637
                  CHANNELS 6 Xposition Yposition Zposition Zrotation Xrotation Yrotation
                  JOINT RightFinger31
                  {
                    OFFSET 0.1927 -3.8059 -0.2383
                    CHANNELS 6 Xposition Yposition Zposition Zrotation Xrotation Yrotation
                    JOINT RightFinger32
                    {
                      OFFSET 0.1091 -2.1688 -0.1362
                      CHANNELS 6 Xposition Yposition Zposition Zrotation Xrotation Yrotation
                      End Site
                      {
                        OFFSET 0.2358 -1.9176 -0.0906
                      }
                    }
                  }
                }
                JOINT RightFinger4
                {
                  OFFSET 0.6151 -8.0947 -3.564
                  CHANNELS 6 Xposition Yposition Zposition Zrotation Xrotation Yrotation
                  JOINT RightFinger41
                  {
                    OFFSET 0.4882 -2.341 -0.6462
                    CHANNELS 6 Xposition Yposition Zposition Zrotation Xrotation Yrotation
                    JOINT RightFinger42
                    {
                      OFFSET 0.3574 -1.7166 -0.4742
                      CHANNELS 6 Xposition Yposition Zposition Zrotation Xrotation Yrotation
                      End Site
                      {
                        OFFSET 0.4187 -1.5237 -0.3496
                      }
                    }
                  }
                }
                JOINT RightFinger0
                {
                  OFFSET 1.4199 -1.8761 1.4221
                  CHANNELS 6 Xposition Yposition Zposition Zrotation Xrotation Yrotation
                  JOINT RightFinger01
                  {
                    OFFSET 1.1472 -3.4929 2.6336
                    CHANNELS 6 Xposition Yposition Zposition Zrotation Xrotation Yrotation
                    JOINT RightFinger02
                    {
                      OFFSET 0.8229 -2.3 1.6571
                      CHANNELS 6 Xposition Yposition Zposition Zrotation Xrotation Yrotation
                      End Site
                      {
                        OFFSET 0.5822 -1.6914 1.1582
                      }
                    }
                  }
                }
              }
            }
          }
        }
      }
    }
  }
  JOINT RightHip
  {
    OFFSET -9.412 3.9771 -0.7758
    CHANNELS 6 Xposition Yposition Zposition Zrotation Xrotation Yrotation
    JOINT RightKnee
    {
      OFFSET -0.7531 -40.938 0
      CHANNELS 6 Xposition Yposition Zposition Zrotation Xrotation Yrotation
      JOINT RightAnkle
      {
        OFFSET 0 -40.1986 0
        CHANNELS 6 Xposition Yposition Zposition Zrotation Xrotation Yrotation
        JOINT RightToe
        {
          OFFSET 0 -4.4182 9.239
          CHANNELS 6 Xposition Yposition Zposition Zrotation Xrotation Yrotation
          End Site
          {
            OFFSET 0 0 6.1981
          }
        }
      }
    }
  }
  JOINT LeftHip
  {
    OFFSET 9.4119 3.9773 -0.7758
    CHANNELS 6 Xposition Yposition Zposition Zrotation Xrotation Yrotation
    JOINT LeftKnee
    {
      OFFSET 0.7532 -40.9383 0
      CHANNELS 6 Xposition Yposition Zposition Zrotation Xrotation Yrotation
      JOINT LeftAnkle
      {
        OFFSET 0 -40.1986 0
        CHANNELS 6 Xposition Yposition Zposition Zrotation Xrotation Yrotation
        JOINT LeftToe
        {
          OFFSET 0 -4.4182 9.239
          CHANNELS 6 Xposition Yposition Zposition Zrotation Xrotation Yrotation
          End Site
          {
            OFFSET 0 0 6.1981
          }
        }
      }
    }
  }
}
MOTION
Frames:	4
Frame Time:	0.0333333
-5.99097 24.8189 -0.627077 -2.08069e-015 35.1251 180 0 8.7983 -4.7612 -0.930754 7.27434 -0.121126 8.88178e-016 8.0291 0.4195 -1.86877 14.5497 -0.12349 0 9.9351 -2.2114 -1.86877 14.5498 -0.123489 0 22.3885 -0.4656 14.9774 -20.6117 -14.6208 -0.0001 12.643 3.4389 10.0631 -34.4846 23.9256 2.2603 21.606 7.4023 -21.1937 -18.5865 -38.4042 13.5163 -1.1332 -5.0146 85.7417 -7.37197 33.5994 -0.0995 -28.05 -0.2431 -33.1323 -32.347 -11.8453 0.0679 -23.3996 -0.1402 -50.9655 12.4456 16.6151 0.7932 -9.06901 2.5189 6.75044e-006 3.30015e-006 8.1157e-006 -0.8272 -3.3923 0.5977 -1.49538e-006 6.32494e-006 3.01918e-006 -0.5649 -2.3158 0.4082 7.47688e-007 -2.22753e-008 -1.50959e-006 0.9159 -9.20441 0.2193 6.75044e-006 3.30015e-006 8.1157e-006 0.0117 -4.1944 -0.0248 -0.0128666 0.0023282 8.41491e-005 0.0071 -2.3249 -0.0142 5.60645e-006 1.14752e-005 5.2118e-006 0.6113 -8.72311 -2.0637 6.75044e-006 3.30015e-006 8.1157e-006 -0.1927 -3.8059 -0.2383 -0.0159888 0.00299007 0.000856385 -0.1091 -2.1688 -0.1362 3.54001e-006 1.46848e-006 -1.48785e-006 -0.6151 -8.09471 -3.5641 6.75044e-006 3.30015e-006 8.1157e-006 -0.4882 -2.341 -0.6462 -0.0126676 0.00313498 0.00283718 -0.3575 -1.7167 -0.4742 3.18055e-015 1.59028e-015 -4.77083e-015 -1.42 -1.8761 1.4223 6.75044e-006 3.30015e-006 8.1157e-006 -1.1471 -3.4929 2.6334 -1.49538e-006 6.32494e-006 3.01918e-006 -0.823 -2.3 1.6571 7.47688e-007 -2.22753e-008 -1.50959e-006 -2.2603 21.606 7.4023 13.6632 -19.0846 30.0579 -13.5187 -1.1334 -5.0155 -85.8579 -31.2073 -30.692 0.0994 -28.0499 -0.2431 40.4257 -44.2171 19.1555 -0.0679 -23.3996 -0.1402 27.6501 -15.5815 -23.8397 -0.7932 -9.0691 2.5189 -3.04141e-006 1.00698e-006 -6.73045e-006 0.8272 -3.3923 0.5977 -1.65048e-007 -3.91537e-006 -2.85132e-006 0.565 -2.3158 0.4082 1.76556e-031 -3.18055e-015 3.18055e-015 -0.916 -9.2044 0.2193 -3.04141e-006 1.00698e-006 -6.73045e-006 -0.0117 -4.1944 -0.0248 0.0129367 0.002317 -7.966e-005 -0.0071 -2.3249 -0.0142 -1.90494e-006 3.81995e-006 4.42492e-006 -0.6113 -8.7231 -2.0637 -3.04141e-006 1.00698e-006 -6.73045e-006 0.1927 -3.8059 -0.2383 0.0163129 0.00302895 -0.000866377 0.1091 -2.1688 -0.1362 -9.89094e-006 -4.04323e-006 -4.61151e-006 0.6151 -8.0947 -3.564 -3.04141e-006 1.00698e-006 -6.73045e-006 0.4882 -2.341 -0.6462 0.0145666 0.00368057 -0.00325745 0.3574 -1.7166 -0.4742 7.49283e-006 -1.27758e-006 4.82353e-007 1.4199 -1.8761 1.4221 -3.04141e-006 1.00698e-006 -6.73045e-006 1.1472 -3.4929 2.6336 -1.65048e-007 -3.91537e-006 -2.85132e-006 0.8229 -2.3 1.6571 1.76556e-031 -3.18055e-015 3.18055e-015 -9.412 3.9771 -0.7758 -100.043 -39.1781 -69.3564 -0.7531 -40.938 3.55271e-015 -177.181 54.9239 -140.155 0 -40.1986 0 5.60476 37.8115 -42.9982 1.77636e-015 -4.4182 9.239 -9.54166e-015 3.69473e-006 -3.18055e-015 9.4119 3.9773 -0.7758 99.261 -40.1775 68.4932 0.7532 -40.9383 -3.55271e-015 177.544 61.1381 139.451 -7.10543e-015 -40.1986 0 -12.1556 43.8234 44.5206 -3.55271e-015 -4.4182 9.239 -1.20006e-006 1.25221e-006 -1.09333e-006 
-5.99057 24.8882 -0.669185 -2.14912e-015 34.7496 180 0 8.7983 -4.7612 -0.929517 7.094 -0.127397 0 8.0291 0.4195 -1.86472 14.1892 -0.139378 8.88178e-016 9.9351 -2.2114 -1.86472 14.1892 -0.139378 0 22.3885 -0.4656 14.9396 -20.2322 -14.729 -0.0001 12.643 3.4389 9.9631 -34.3276 23.7698 2.2603 21.606 7.4023 -21.4528 -18.0875 -38.439 13.5163 -1.1332 -5.0146 85.7417 -7.37199 33.5995 -0.0995 -28.05 -0.2431 -32.8982 -32.1708 -11.7079 0.0679 -23.3996 -0.1402 -50.9875 12.5882 16.2636 0.7932 -9.069 2.5189 7.07549e-006 3.00192e-006 -2.98801e-006 -0.8272 -3.3923 0.5977 -5.98095e-006 -1.39857e-006 -4.44844e-006 -0.5649 -2.3158 0.4082 -7.10172e-006 -3.53372e-006 -2.18438e-006 0.9159 -9.2044 0.2193 7.07549e-006 3.00192e-006 -2.98801e-006 0.0117 -4.1944 -0.0248 -0.0128132 0.00231545 8.83113e-005 0.0071 -2.3249 -0.0142 -4.28645e-006 5.95678e-007 -1.35202e-005 0.6113 -8.7231 -2.0637 7.07549e-006 3.00192e-006 -2.98801e-006 -0.1927 -3.8059 -0.2383 -0.0160351 0.00299039 0.000856947 -0.1091 -2.1688 -0.1362 -2.41628e-006 1.10545e-005 -7.70208e-007 -0.6151 -8.0947 -3.5641 7.07549e-006 3.00192e-006 -2.98801e-006 -0.4882 -2.341 -0.6462 -0.0125577 0.00311214 0.00281707 -0.3575 -1.7167 -0.4742 3.18055e-015 1.90833e-014 -1.74931e-014 -1.42 -1.8761 1.4223 7.07549e-006 3.00192e-006 -2.98801e-006 -1.1471 -3.4929 2.6334 -5.98095e-006 -1.39857e-006 -4.44844e-006 -0.823 -2.3 1.6571 -7.10172e-006 -3.53372e-006 -2.18438e-006 -2.2603 21.606 7.4023 13.795 -18.1328 30.3984 -13.5187 -1.1334 -5.0155 -85.8579 -31.2073 -30.692 0.0994 -28.0499 -0.2431 39.4291 -43.6078 18.4223 -0.0679 -23.3996 -0.1402 27.9095 -16.0196 -23.0888 -0.7932 -9.0691 2.5189 -2.22919e-006 8.17382e-007 -1.27205e-006 0.8272 -3.3923 0.5977 1.62816e-007 -7.6697e-006 2.8489e-006 0.565 -2.3158 0.4082 -5.42825e-006 -5.2602e-006 -2.05925e-006 -0.916 -9.2044 0.2193 -2.22919e-006 8.17382e-007 -1.27205e-006 -0.0117 -4.1944 -0.0248 0.0129109 0.00230332 -8.35822e-005 -0.0071 -2.3249 -0.0142 1.90366e-006 3.53002e-006 -4.42569e-006 -0.6113 -8.7231 -2.0637 -2.22919e-006 8.17382e-007 -1.27205e-006 0.1927 -3.8059 -0.2383 0.0164392 0.00304779 -0.00086938 0.1091 -2.1688 -0.1362 7.65712e-006 -2.99725e-007 3.33171e-006 0.6151 -8.0947 -3.564 -2.22919e-006 8.17382e-007 -1.27205e-006 0.4882 -2.341 -0.6462 0.0145295 0.00365025 -0.00325069 0.3574 -1.7166 -0.4742 1.25997e-005 1.01982e-006 5.63393e-006 1.4199 -1.8761 1.4221 -2.22919e-006 8.17382e-007 -1.27205e-006 1.1472 -3.4929 2.6336 1.62816e-007 -7.6697e-006 2.8489e-006 0.8229 -2.3 1.6571 -5.42825e-006 -5.2602e-006 -2.05925e-006 -9.412 3.9771 -0.7758 -99.5562 -39.2226 -69.0733 -0.7531 -40.938 0 -177.195 55.2067 -140.123 -3.55271e-015 -40.1986 0 5.79891 37.4671 -43.0804 0 -4.4182 9.239 -7.16789e-006 5.59262e-006 9.49896e-006 9.4119 3.9773 -0.7758 98.888 -40.0198 68.2169 0.7532 -40.9383 3.55271e-015 177.552 61.3255 139.43 0 -40.1986 0 -12.0239 43.3701 44.329 0 -4.4182 9.239 -1.20025e-006 1.25231e-006 -1.09313e-006 
-5.99019 24.9577 -0.710938 -2.21693e-015 34.3741 180 0 8.7983 -4.7612 -0.928276 6.91366 -0.133647 -8.88178e-016 8.0291 0.4195 -1.86074 13.8286 -0.155194 0 9.9351 -2.2114 -1.86075 13.8286 -0.155194 -4.44089e-016 22.3885 -0.4656 14.9027 -19.8524 -14.8367 -0.0001 12.643 3.4389 9.8638 -34.1704 23.6147 2.2603 21.606 7.4023 -21.7108 -17.5883 -38.4712 13.5163 -1.1332 -5.0146 85.7417 -7.37199 33.5995 -0.0995 -28.05 -0.2431 -32.6652 -31.994 -11.5715 0.0679 -23.3996 -0.1402 -51.0086 12.731 15.912 0.7932 -9.06901 2.5189 -3.56571e-006 -2.12061e-006 -3.67639e-006 -0.8272 -3.3923 0.5977 -3.90837e-006 -2.167e-006 2.25449e-006 -0.5649 -2.3158 0.4082 -3.56571e-006 -1.94708e-006 -3.67638e-006 0.9159 -9.20441 0.2193 -3.56571e-006 -2.12061e-006 -3.67639e-006 0.0117 -4.1944 -0.0248 -0.0128503 0.00233691 8.88224e-005 0.0071 -2.3249 -0.0142 -5.97989e-006 -1.40109e-006 -4.44036e-006 0.6113 -8.7231 -2.0637 -3.56571e-006 -2.12061e-006 -3.67639e-006 -0.1927 -3.8059 -0.2383 -0.0160531 0.00299459 0.000854367 -0.1091 -2.1688 -0.1362 -1.66733e-006 1.60169e-006 -2.27297e-006 -0.6151 -8.0947 -3.5641 -3.56571e-006 -2.12061e-006 -3.67639e-006 -0.4882 -2.341 -0.6462 -0.01257 0.00311575 0.00281318 -0.3575 -1.7167 -0.4742 3.18055e-015 0 -1.59028e-015 -1.42 -1.8761 1.4223 -3.56571e-006 -2.12061e-006 -3.67639e-006 -1.1471 -3.4929 2.6334 -3.90837e-006 -2.167e-006 2.25449e-006 -0.823 -2.3 1.6571 -3.56571e-006 -1.94708e-006 -3.67638e-006 -2.2603 21.606 7.4023 13.9201 -17.1806 30.7346 -13.5187 -1.1334 -5.0155 -85.8579 -31.2073 -30.692 0.0994 -28.0499 -0.2431 38.4536 -42.9897 17.7112 -0.0679 -23.3996 -0.1402 28.1755 -16.4544 -22.3345 -0.7932 -9.06911 2.5189 5.59382e-006 -1.56928e-006 4.91037e-006 0.8272 -3.3923 0.5977 -6.36111e-015 0 -3.18055e-015 0.565 -2.3158 0.4082 3.53113e-031 -3.18055e-015 6.36111e-015 -0.916 -9.20441 0.2193 5.59382e-006 -1.56928e-006 4.91037e-006 -0.0117 -4.1944 -0.0248 0.0130319 0.00232558 -8.59562e-005 -0.0071 -2.3249 -0.0142 2.71731e-006 7.97949e-006 1.03211e-006 -0.6113 -8.72311 -2.0637 5.59382e-006 -1.56928e-006 4.91037e-006 0.1927 -3.8059 -0.2383 0.0163866 0.00304347 -0.000881197 0.1091 -2.1688 -0.1362 -3.18055e-015 -3.18055e-015 -3.18055e-015 0.6151 -8.09471 -3.564 5.59382e-006 -1.56928e-006 4.91037e-006 0.4882 -2.341 -0.6462 0.0145347 0.00366735 -0.00326051 0.3574 -1.7166 -0.4742 1.58901e-030 -9.54166e-015 9.54166e-015 1.4199 -1.8761 1.4221 5.59382e-006 -1.56928e-006 4.91037e-006 1.1472 -3.4929 2.6336 -6.36111e-015 0 -3.18055e-015 0.8229 -2.3 1.6571 3.53113e-031 -3.18055e-015 6.36111e-015 -9.412 3.9771 -0.7758 -99.0688 -39.2653 -68.7897 -0.7531 -40.938 0 -177.209 55.4895 -140.091 -3.55271e-015 -40.1986 -3.55271e-015 5.99155 37.1225 -43.1608 -3.55271e-015 -4.4182 9.239 2.48165e-006 4.488e-006 2.09407e-006 9.4119 3.9773 -0.7758 98.517 -39.8609 67.9427 0.7532 -40.9383 7.10543e-015 177.559 61.513 139.409 0 -40.1986 3.55271e-015 -11.8953 42.9167 44.1404 7.10543e-015 -4.4182 9.239 -9.2692e-031 -1.11319e-014 -4.77083e-015 
-5.98982 25.0275 -0.752339 -2.28413e-015 33.9986 180 0 8.7983 -4.7612 -0.927047 6.73333 -0.139883 8.88178e-016 8.0291 0.4195 -1.85687 13.468 -0.170947 0 9.9351 -2.2114 -1.85687 13.4681 -0.170948 0 22.3885 -0.4656 14.8666 -19.4722 -14.944 -0.0001 12.643 3.4389 9.76512 -34.0128 23.46 2.2603 21.606 7.4023 -21.9678 -17.089 -38.501 13.5163 -1.1332 -5.0146 85.7417 -7.37197 33.5995 -0.0995 -28.05 -0.2431 -32.4331 -31.8169 -11.4363 0.0679 -23.3996 -0.1402 -51.0288 12.874 15.5603 0.7932 -9.069 2.5189 3.18055e-015 1.59028e-015 -1.59028e-015 -0.8272 -3.3923 0.5977 -6.36111e-015 -7.95139e-015 1.59028e-015 -0.5649 -2.3158 0.4082 -1.04932e-005 -7.91633e-006 -5.59222e-007 0.9159 -9.2044 0.2193 3.18055e-015 1.59028e-015 -1.59028e-015 0.0117 -4.1944 -0.0248 -0.0128624 0.00233236 8.27891e-005 0.0071 -2.3249 -0.0142 -9.88445e-006 -5.2042e-006 -2.17199e-006 0.6113 -8.7231 -2.0637 3.18055e-015 1.59028e-015 -1.59028e-015 -0.1927 -3.8059 -0.2383 -0.01606 0.00299731 0.000861724 -0.1091 -2.1688 -0.1362 -1.29055e-005 -4.91794e-006 -1.3173e-006 -0.6151 -8.0947 -3.5641 3.18055e-015 1.59028e-015 -1.59028e-015 -0.4882 -2.341 -0.6462 -0.0125955 0.00311515 0.00282501 -0.3575 -1.7167 -0.4742 -1.11972e-006 -1.69031e-006 2.26318e-006 -1.42 -1.8761 1.4223 3.18055e-015 1.59028e-015 -1.59028e-015 -1.1471 -3.4929 2.6334 -6.36111e-015 -7.95139e-015 1.59028e-015 -0.823 -2.3 1.6571 -1.04932e-005 -7.91633e-006 -5.59222e-007 -2.2603 21.606 7.4023 14.0387 -16.2281 31.0669 -13.5187 -1.1334 -5.0155 -85.8579 -31.2073 -30.692 0.0994 -28.0499 -0.2431 37.4985 -42.3631 17.0218 -0.0679 -23.3996 -0.1402 28.4479 -16.8856 -21.5765 -0.7932 -9.0691 2.5189 -0 -3.7663e-006 -0 0.8272 -3.3923 0.5977 1.05315e-005 3.20358e-007 7.2095e-006 0.565 -2.3158 0.4082 2.71977e-006 2.11536e-006 1.03494e-006 -0.916 -9.2044 0.2193 -0 -3.7663e-006 -0 -0.0117 -4.1944 -0.0248 0.0129839 0.00232219 -7.20427e-005 -0.0071 -2.3249 -0.0142 4.77913e-006 -6.0412e-007 -5.47609e-007 -0.6113 -8.7231 -2.0637 -0 -3.7663e-006 -0 0.1927 -3.8059 -0.2383 0.0162909 0.00303027 -0.000861321 0.1091 -2.1688 -0.1362 2.05888e-006 -3.68195e-007 -1.5826e-006 0.6151 -8.0947 -3.564 -0 -3.7663e-006 -0 0.4882 -2.341 -0.6462 0.0145981 0.00369725 -0.00325943 0.3574 -1.7166 -0.4742 -6.36111e-015 3.67994e-007 3.18055e-015 1.4199 -1.8761 1.4221 -0 -3.7663e-006 -0 1.1472 -3.4929 2.6336 1.05315e-005 3.20358e-007 7.2095e-006 0.8229 -2.3 1.6571 2.71977e-006 2.11536e-006 1.03494e-006 -9.412 3.9771 -0.7758 -98.581 -39.306 -68.5053 -0.7531 -40.938 7.10543e-015 -177.224 55.7723 -140.058 -3.55271e-015 -40.1986 0 6.18255 36.7779 -43.2392 0 -4.4182 9.239 1.65235e-006 -1.0119e-005 4.35332e-006 9.4119 3.9773 -0.7758 98.1484 -39.7008 67.6709 0.7532 -40.9383 -7.10543e-015 177.567 61.7004 139.388 0 -40.1986 0 -11.7699 42.4634 43.9546 0 -4.4182 9.239 1.20063e-006 -4.93224e-006 1.09269e-006 
